<?xml version="1.0" encoding="utf-8"?>
<!-- Generator: Adobe Illustrator 23.0.0, SVG Export Plug-In . SVG Version: 6.00 Build 0)  -->
<svg version="1.1" id="Layer_1"
	xmlns="http://www.w3.org/2000/svg"
	xmlns:xlink="http://www.w3.org/1999/xlink" x="0px" y="0px" width="308px" height="271px" viewBox="0 0 308 271" style="enable-background:new 0 0 308 271;" xml:space="preserve">

	<g>
		<path fill="#ff79c6" d="M125.2,42.8C99.2,38,78.6,43,70.4,57.2c-6.1,10.6-4.4,24.6,4.2,39.6c0.7,1.3,2.3,1.8,3.6,1.1
			c1.3-0.7,1.8-2.3,1.1-3.6c0,0,0-0.1-0.1-0.1C71.5,80.7,70,68.5,75,59.9c6.8-11.8,25.1-16.2,49.2-11.8c1.5,0.2,2.8-0.7,3.1-2.2
			C127.5,44.4,126.6,43,125.2,42.8z M88.2,115.1c10.5,11.6,24.2,22.4,39.8,31.4c37.7,21.8,77.9,27.6,97.7,14.1
			c1.2-0.8,1.6-2.5,0.8-3.7c-0.8-1.2-2.5-1.6-3.7-0.8c0,0-0.1,0-0.1,0.1c-17.7,12.1-55.9,6.5-92-14.3c-15.1-8.7-28.3-19.2-38.5-30.4
			c-1-1.1-2.7-1.2-3.8-0.2C87.3,112.3,87.2,114,88.2,115.1C88.2,115.1,88.2,115.1,88.2,115.1z"/>
		<path fill="#ff79c6" d="M219.3,111.8c17-20.1,23-40.3,14.8-54.5c-6-10.4-18.7-15.9-35.6-16.1c-1.5,0-2.7,1.2-2.7,2.7
			c0,1.4,1.2,2.6,2.6,2.7c15.2,0.2,26.2,4.9,31.1,13.5c6.8,11.8,1.5,29.8-14.2,48.4c-1,1.1-0.8,2.8,0.3,3.8
			C216.6,113.1,218.3,113,219.3,111.8C219.3,111.9,219.3,111.8,219.3,111.8z M175.5,43.7c-15.4,3.3-31.8,9.7-47.5,18.8
			C89.1,85,63.7,118.1,67.2,142.2c0.2,1.5,1.5,2.5,3,2.3c1.5-0.2,2.5-1.5,2.3-3c0,0,0,0,0-0.1c-3.1-21.3,20.9-52.8,58.2-74.3
			c15.3-8.8,31.1-15.1,46-18.2c1.4-0.3,2.4-1.7,2.1-3.1S177.1,43.4,175.5,43.7C175.6,43.6,175.6,43.7,175.5,43.7L175.5,43.7z"/>
		<path fill="#ff79c6" d="M112.5,158.8c8.9,24.9,23.5,40.2,39.8,40.2c11.9,0,23-8.1,31.6-22.5c0.8-1.3,0.4-2.9-0.9-3.7
			c-1.3-0.8-2.9-0.4-3.7,0.9c0,0,0,0,0,0.1c-7.7,12.9-17.3,19.9-27,19.9c-13.6,0-26.6-13.7-34.8-36.6c-0.5-1.4-2-2.1-3.4-1.7
			c-1.4,0.5-2.1,2-1.7,3.4C112.4,158.8,112.4,158.8,112.5,158.8L112.5,158.8z"/>
		<path fill="#ff79c6" d="M193.8,154c4.6-14.7,7.1-31.7,7.1-49.4c0-44.2-15.5-82.3-37.5-92c-1.4-0.6-2.9,0.1-3.5,1.4
			c-0.6,1.3,0,2.8,1.3,3.4c19.6,8.7,34.3,44.9,34.3,87.2c0,17.2-2.4,33.6-6.8,47.8c-0.5,1.4,0.3,2.9,1.7,3.4S193.3,155.4,193.8,154
			C193.8,154,193.8,154,193.8,154L193.8,154z"/>
		<circle fill="#ff79c6" cx="231.2" cy="151.4" r="12.8"/>
		<path fill="#ff79c6" d="M73.2,164.1c7,0,12.8-5.7,12.8-12.8s-5.7-12.8-12.8-12.8c-7,0-12.8,5.7-12.8,12.8S66.1,164.1,73.2,164.1z"/>
		<circle fill="#ff79c6" cx="152.3" cy="12.8" r="12.8"/>
		<circle fill="#ff79c6" cx="152.2" cy="99.5" r="17.1"/>
	</g>

	<g>
		<path fill="#343746" d="M0,223.7h14.6c2.8,0,5,0.1,6.5,0.4c1.5,0.3,3,1,4.6,2.1c1.5,1.1,2.8,2.7,3.6,4.7c0.9,2,1.3,4.2,1.3,6.7
		c0,5.8-2.2,9.9-6.6,12.3l8.6,20.4H21.6l-6.2-18.4h-5.1v18.4H0V223.7z M10.2,231.3v13.1h4.5c4,0,6-2.2,6-6.7c0-1.5-0.3-2.8-0.9-3.8
		c-0.6-1-1.3-1.7-2.1-2c-0.8-0.4-1.9-0.5-3.5-0.5H10.2z"/>
		<path fill="#343746" d="M38.1,223.7h28.3v8H48.3v10.8h14.1v8H48.3V262h18.1v8.3H38.1V223.7z"/>
		<path fill="#343746" d="M71.4,223.7h10.2v37.8h15v8.7H71.4V223.7z"/>
		<path fill="#343746" d="M101.2,223.7h28.3v8h-18.1v10.8h14.1v8h-14.1V262h18.1v8.3h-28.3V223.7z"/>
		<path fill="#343746" d="M157.2,253.3l9.5,0.6c-0.3,5-1.9,9.2-4.8,12.3c-2.9,3.2-6.7,4.8-11.4,4.8c-5.7,0-10.1-2.1-13.1-6.4
		c-3-4.3-4.5-10.1-4.5-17.6c0-7.5,1.5-13.4,4.5-17.7c3-4.3,7.4-6.4,13.3-6.4c9.7,0,15,6,15.9,18l-9.4,0.7
		c-0.3-6.9-2.4-10.4-6.5-10.4c-2.1,0-3.8,1.1-5.1,3.3c-1.3,2.2-1.9,6.6-1.9,13c0,5.7,0.6,9.7,1.7,11.8c1.2,2.1,2.9,3.2,5.2,3.2
		C154.3,262.7,156.5,259.6,157.2,253.3z"/>
		<path fill="#343746" d="M167.4,223.7h29v8.7H187v37.8h-10.2v-37.8h-9.3V223.7z"/>
		<path fill="#343746" d="M200,223.7h14.6c2.8,0,5,0.1,6.5,0.4c1.5,0.3,3,1,4.6,2.1c1.5,1.1,2.8,2.7,3.6,4.7c0.9,2,1.3,4.2,1.3,6.7
		c0,5.8-2.2,9.9-6.6,12.3l8.6,20.4h-11.1l-6.2-18.4h-5.1v18.4H200V223.7z M210.3,231.3v13.1h4.5c4,0,6-2.2,6-6.7
		c0-1.5-0.3-2.8-0.9-3.8c-0.6-1-1.3-1.7-2.1-2c-0.8-0.4-1.9-0.5-3.5-0.5H210.3z"/>
		<path fill="#343746" d="M270,247c0,16-5.6,24-16.9,24c-5.6,0-9.8-2-12.7-6.1c-2.8-4.1-4.3-10-4.3-17.9c0-16,5.6-24,16.9-24
		c5.5,0,9.7,2,12.6,6C268.5,233,270,239,270,247z M259.2,247c0-6.3-0.5-10.5-1.5-12.5c-1-2.1-2.5-3.1-4.7-3.1c-2.1,0-3.7,1-4.6,3.1
		c-1,2.1-1.5,6.3-1.5,12.5c0,6.1,0.5,10.3,1.5,12.5c1,2.2,2.5,3.2,4.7,3.2c2.1,0,3.7-1,4.7-3.1C258.7,257.5,259.2,253.3,259.2,247z" />
		<path fill="#343746" d="M276.7,223.7h11.4l12,28.9v-28.9h7.9v46.6h-9.1l-14.2-33.7v33.7h-7.9V223.7z"/>
	</g>
</svg>
